<svg width="183" height="34" viewBox="0 0 183 34" fill="none" xmlns="http://www.w3.org/2000/svg">
<g clip-path="url(#clip0_1_96)">
<path fill-rule="evenodd" clip-rule="evenodd" d="M9.39872 4.48537H7.9974C5.87824 4.48537 3.82783 5.90339 3.82783 10.0156C3.82783 13.9895 5.70839 15.2691 7.9974 15.2691H9.39872V4.48537ZM7.21182 17.4814L3.04124 26.951H0L4.58006 16.8243C2.42652 15.7176 0.990829 13.714 0.990829 10.0156C0.990829 4.83124 4.23832 2.23847 8.10053 2.23847H12.0315V26.951H9.39872V17.4814H7.21182ZM59.4801 18.1894C59.4801 12.6222 61.4526 9.06451 65.2693 9.06451C66.7252 9.06451 67.5644 9.48761 68.2762 9.98103L67.9203 12.5865C67.2419 11.9524 66.2713 11.3541 65.237 11.3541C63.4252 11.3541 62.132 13.5733 62.132 18.0476C62.132 22.486 63.1026 25.0223 65.1399 25.0223C66.3683 25.0223 67.3066 24.4943 67.8879 23.9306L68.4703 25.9745C67.5978 26.785 66.5625 27.3118 65.0752 27.3118C61.582 27.3118 59.4801 24.2476 59.4801 18.1894ZM52.1065 18.2239V27.0663H49.5819V9.31122H52.1055V17.5195L56.0182 9.31122H58.5731L54.5299 17.6602L59.1555 27.0663H56.4055L52.1055 18.2239H52.1065ZM40.2367 16.5685H44.4083C44.4083 13.5387 43.9554 11.3195 42.5005 11.3195C40.9475 11.3195 40.3975 13.3981 40.2357 16.5685H40.2367ZM43.0171 27.313C39.6544 27.313 37.5848 24.3883 37.5848 18.9283C37.5848 13.2217 39.0407 9.06451 42.5005 9.06451C45.2172 9.06451 46.9956 11.2838 46.9956 17.3074V18.8222H40.2044C40.2044 22.8388 41.2387 24.9531 43.2446 24.9531C44.6672 24.9531 45.7995 24.2476 46.4466 23.7541L47.028 25.8685C45.9937 26.7493 44.6348 27.313 43.0181 27.313H43.0171ZM32.2798 11.5304H29.467V11.8475C29.467 15.5816 29.3053 21.0427 27.9464 24.8113H32.2808V11.5304H32.2798ZM36.0641 30.5537H33.8004V27.0663H26.814V30.5537H24.5513V24.8125H25.5533C27.0415 21.0427 27.2033 15.547 27.2033 10.8261V9.31122H34.771V24.8113H36.0652V30.5537H36.0641ZM23.0954 9.31122V27.0652H20.6052V19.1047H16.8542V27.0663H14.3306V9.31122H16.8542V16.8509H20.6052V9.31122H23.0954ZM86.5357 1.8465H79.5019V27.1297H77.8508V0.308594H88.1878V27.1297H86.5357V1.84765V1.8465ZM96.5421 26.0795C97.5997 26.0795 98.4469 25.3613 99.0859 23.9236C99.7239 22.4848 100.043 20.2656 100.043 17.2647C100.043 14.7631 99.7684 12.8263 99.2173 11.4497C98.6673 10.0744 97.908 9.38616 96.9384 9.38616C96.5643 9.38616 96.2064 9.49338 95.8657 9.7055C95.511 9.92998 95.1881 10.2145 94.9082 10.5494C94.611 10.8999 94.341 11.3056 94.0994 11.7691C93.8574 12.2308 93.6475 12.7134 93.4715 13.2125V23.7911C93.8011 24.5669 94.2096 25.1423 94.6929 25.5169C95.1782 25.8915 95.7949 26.0795 96.5431 26.0795H96.5421ZM96.443 27.4675C95.8402 27.4769 95.2448 27.3157 94.7101 26.9983C94.2243 26.7161 93.8008 26.3121 93.4715 25.8166V32.9816H91.9196V8.22408H93.2734L93.4048 11.3368C93.7789 10.4376 94.2743 9.63056 94.8911 8.9181C95.5078 8.20449 96.2782 7.84825 97.2033 7.84825C97.8858 7.84825 98.5015 8.07421 99.0525 8.52382C99.6025 8.97344 100.066 9.6052 100.44 10.4179C100.814 11.2307 101.1 12.206 101.298 13.3439C101.496 14.4818 101.595 15.7384 101.595 17.1137C101.595 20.5908 101.122 23.1847 100.175 24.8978C99.2285 26.611 97.9849 27.4686 96.444 27.4686L96.443 27.4675ZM107.838 26.0795C108.607 26.0795 109.263 25.7175 109.802 24.9924C110.341 24.266 110.765 23.391 111.073 22.3661V17.1518H109.289C107.903 17.1518 106.879 17.5265 106.219 18.277C105.559 19.0263 105.228 20.2276 105.228 21.8784C105.228 23.2284 105.465 24.266 105.938 24.9912C106.411 25.7175 107.044 26.0795 107.837 26.0795H107.838ZM111.536 27.1297C111.455 26.8136 111.383 26.4945 111.321 26.1729C111.227 25.6473 111.166 25.115 111.139 24.5796C110.743 25.4788 110.248 26.1924 109.652 26.717C109.059 27.2427 108.343 27.5056 107.507 27.5056C106.385 27.5056 105.47 27.0236 104.766 26.061C104.061 25.0984 103.708 23.7541 103.708 22.0283C103.708 20.0028 104.183 18.4706 105.129 17.4331C106.075 16.3955 107.451 15.8767 109.257 15.8767H111.073V13.5134C111.073 12.0619 110.842 11.0116 110.379 10.3615C109.917 9.71126 109.224 9.38616 108.3 9.38616C107.595 9.38616 106.935 9.56831 106.318 9.9303C105.701 10.2935 105.196 10.7995 104.798 11.4497L104.37 9.76199C104.699 9.26165 105.201 8.81665 105.872 8.43045C106.543 8.04193 107.352 7.84825 108.299 7.84825C109.686 7.84825 110.748 8.2921 111.486 9.1798C112.224 10.0675 112.593 11.4497 112.593 13.3254V23.6412C112.593 24.2914 112.625 24.9485 112.692 25.6102C112.757 26.2731 112.845 26.7805 112.955 27.1297H111.536ZM117.711 27.1297H116.158V8.22292H117.711V17.1137L123.292 8.22408H124.811L119.329 17.0019L125.207 27.1297H123.491L117.711 17.3397V27.1297ZM131.152 9.68706V27.1297H129.599V9.68706H125.736V8.22292H134.983V9.68706H131.151H131.152ZM145.121 13.9642C145.121 13.4626 145.132 13.0073 145.154 12.5934C145.177 12.1819 145.209 11.7749 145.253 11.3748H145.154C145.047 11.791 144.915 12.1981 144.758 12.5934C144.596 13.0014 144.431 13.408 144.263 13.8131L138.846 27.1297H137.526V8.22292H138.979V21.3539C138.983 22.2439 138.939 23.1332 138.847 24.0171H138.946C139.056 23.5904 139.188 23.172 139.342 22.7605C139.497 22.3477 139.661 21.9281 139.837 21.5038L145.253 8.22292H146.607V27.1297H145.121V13.9642ZM151.891 27.1297H150.339V8.22292H151.891V17.1137L157.472 8.22408H158.992L153.51 17.0019L159.388 27.1297H157.67L151.891 17.3397V27.1297ZM161.633 33.1315C161.458 33.1315 161.298 33.1257 161.154 33.113C161.027 33.1028 160.9 33.0839 160.775 33.0565L160.609 31.4068C160.741 31.4564 160.89 31.4944 161.055 31.5186C161.221 31.544 161.413 31.5566 161.633 31.5566C162.206 31.5566 162.69 31.2627 163.086 30.6747C163.483 30.0868 163.802 29.2683 164.044 28.218L164.175 27.6554L160.048 8.22408H161.6L164.242 20.5654C164.397 21.2916 164.528 22.003 164.638 22.7039C164.75 23.4037 164.848 24.1161 164.936 24.8414H165.035C165.145 24.092 165.266 23.3656 165.399 22.6659C165.53 21.9661 165.674 21.2652 165.827 20.5654L168.403 8.22408H169.791L165.529 28.1039C165.398 28.7541 165.226 29.3801 165.017 29.9796C164.823 30.5488 164.562 31.0852 164.241 31.574C163.944 32.0249 163.574 32.4069 163.151 32.6992C162.734 32.9874 162.227 33.1303 161.632 33.1303L161.633 33.1315ZM174.15 13.775C174.018 13.2759 173.918 12.8066 173.852 12.3686C173.786 11.9305 173.698 11.4751 173.588 11.0002H173.457C173.5 11.4994 173.539 12.0066 173.572 12.5184C173.604 13.0315 173.622 13.6252 173.622 14.3008V27.1297H172.3V8.22292H174.117L177.023 19.778C177.199 20.4524 177.32 21.0277 177.387 21.5026C177.452 21.9788 177.507 22.4665 177.551 22.9668H177.683C177.727 22.4665 177.788 21.9788 177.865 21.5026C177.942 21.0277 178.068 20.4536 178.244 19.778L181.216 8.22408H183V27.1309H181.514V14.2996C181.508 13.1849 181.552 12.0706 181.645 10.9609H181.514C181.426 11.4867 181.343 11.9743 181.266 12.4239C181.189 12.8735 181.095 13.3243 180.986 13.7739L178.212 24.8782H176.924L174.149 13.7739L174.15 13.775Z" fill="black"/>
</g>
<defs>
<clipPath id="clip0_1_96">
<rect width="183" height="32.8229" fill="white" transform="translate(0 0.308594)"/>
</clipPath>
</defs>
</svg>
